REM DIRINDEX 1\6,1\2\7,1\2\8,1\2\9,1\3\10,1\3\11,1\4\12,1\4\13,1\4\14,1\5\15,1\5\16,1\5\17
REM DIRNAME cjc040,folder01,folder02,folder03,folder04,folder05,folder06,folder07,folder08,folder09,folder10,folder11,folder12,folder13,folder14,folder15,folder16
TITLE ""
FILE "P2Q_j_1100-1113.mp3" MP3
  TRACK 01 AUDIO
    TITLE "12:cjc040_0044"
    INDEX 01 00:00:00
  TRACK 02 AUDIO
    TITLE "0:"
    INDEX 01 00:01:22
  TRACK 03 AUDIO
    TITLE "13:cjc040_0045"
    INDEX 01 00:01:71
  TRACK 04 AUDIO
    TITLE "0:"
    INDEX 01 00:03:10
  TRACK 05 AUDIO
    TITLE "14:cjc040_0046"
    INDEX 01 00:03:63
  TRACK 06 AUDIO
    TITLE "0:"
    INDEX 01 00:09:53
  TRACK 07 AUDIO
    TITLE "12:cjc040_0047"
    INDEX 01 00:10:35
  TRACK 08 AUDIO
    TITLE "0:"
    INDEX 01 00:11:58
  TRACK 09 AUDIO
    TITLE "13:cjc040_0048"
    INDEX 01 00:12:34
  TRACK 10 AUDIO
    TITLE "0:"
    INDEX 01 00:13:67
  TRACK 11 AUDIO
    TITLE "14:cjc040_0049"
    INDEX 01 00:14:43
  TRACK 12 AUDIO
    TITLE "0:"
    INDEX 01 00:18:21
  TRACK 13 AUDIO
    TITLE "12:cjc040_0050"
    INDEX 01 00:18:72
  TRACK 14 AUDIO
    TITLE "0:"
    INDEX 01 00:20:51
  TRACK 15 AUDIO
    TITLE "13:cjc040_0051"
    INDEX 01 00:21:25
  TRACK 16 AUDIO
    TITLE "0:"
    INDEX 01 00:22:66
  TRACK 17 AUDIO
    TITLE "14:cjc040_0052"
    INDEX 01 00:23:44
  TRACK 18 AUDIO
    TITLE "0:"
    INDEX 01 00:28:29
  TRACK 19 AUDIO
    TITLE "12:cjc040_0053"
    INDEX 01 00:29:03
  TRACK 20 AUDIO
    TITLE "0:"
    INDEX 01 00:30:46
  TRACK 21 AUDIO
    TITLE "13:cjc040_0054"
    INDEX 01 00:31:20
  TRACK 22 AUDIO
    TITLE "0:"
    INDEX 01 00:33:21
  TRACK 23 AUDIO
    TITLE "14:cjc040_0055"
    INDEX 01 00:33:68
  TRACK 24 AUDIO
    TITLE "0:"
    INDEX 01 00:38:31
  TRACK 25 AUDIO
    TITLE "12:cjc040_0056"
    INDEX 01 00:39:11
  TRACK 26 AUDIO
    TITLE "0:"
    INDEX 01 00:40:38
  TRACK 27 AUDIO
    TITLE "13:cjc040_0057"
    INDEX 01 00:41:16
  TRACK 28 AUDIO
    TITLE "0:"
    INDEX 01 00:42:39
  TRACK 29 AUDIO
    TITLE "14:cjc040_0058"
    INDEX 01 00:43:17
  TRACK 30 AUDIO
    TITLE "0:"
    INDEX 01 00:47:32
  TRACK 31 AUDIO
    TITLE "12:cjc040_0059"
    INDEX 01 00:48:12
  TRACK 32 AUDIO
    TITLE "0:"
    INDEX 01 00:49:63
  TRACK 33 AUDIO
    TITLE "13:cjc040_0060"
    INDEX 01 00:50:44
  TRACK 34 AUDIO
    TITLE "0:"
    INDEX 01 00:52:30
  TRACK 35 AUDIO
    TITLE "14:cjc040_0061"
    INDEX 01 00:53:08
  TRACK 36 AUDIO
    TITLE "0:"
    INDEX 01 00:58:01
  TRACK 37 AUDIO
    TITLE "12:cjc040_0062"
    INDEX 01 00:58:54
  TRACK 38 AUDIO
    TITLE "0:"
    INDEX 01 01:00:27
  TRACK 39 AUDIO
    TITLE "13:cjc040_0063"
    INDEX 01 01:01:09
  TRACK 40 AUDIO
    TITLE "0:"
    INDEX 01 01:03:16
  TRACK 41 AUDIO
    TITLE "14:cjc040_0064"
    INDEX 01 01:03:67
  TRACK 42 AUDIO
    TITLE "0:"
    INDEX 01 01:08:13
  TRACK 43 AUDIO
    TITLE "12:cjc040_0065"
    INDEX 01 01:08:62
  TRACK 44 AUDIO
    TITLE "0:"
    INDEX 01 01:10:55
  TRACK 45 AUDIO
    TITLE "13:cjc040_0066"
    INDEX 01 01:11:29
  TRACK 46 AUDIO
    TITLE "0:"
    INDEX 01 01:13:47
  TRACK 47 AUDIO
    TITLE "14:cjc040_0067"
    INDEX 01 01:14:23
  TRACK 48 AUDIO
    TITLE "0:"
    INDEX 01 01:17:61
  TRACK 49 AUDIO
    TITLE "12:cjc040_0068"
    INDEX 01 01:18:37
  TRACK 50 AUDIO
    TITLE "0:"
    INDEX 01 01:20:42
  TRACK 51 AUDIO
    TITLE "13:cjc040_0069"
    INDEX 01 01:21:20
  TRACK 52 AUDIO
    TITLE "0:"
    INDEX 01 01:23:28
  TRACK 53 AUDIO
    TITLE "14:cjc040_0070"
    INDEX 01 01:24:06
  TRACK 54 AUDIO
    TITLE "0:"
    INDEX 01 01:28:27
  TRACK 55 AUDIO
    TITLE "12:cjc040_0071"
    INDEX 01 01:29:05
  TRACK 56 AUDIO
    TITLE "0:"
    INDEX 01 01:30:69
  TRACK 57 AUDIO
    TITLE "13:cjc040_0072"
    INDEX 01 01:31:53
  TRACK 58 AUDIO
    TITLE "0:"
    INDEX 01 01:33:36
  TRACK 59 AUDIO
    TITLE "14:cjc040_0073"
    INDEX 01 01:34:18
  TRACK 60 AUDIO
    TITLE "0:"
    INDEX 01 01:37:38
  TRACK 61 AUDIO
    TITLE "12:cjc040_0074"
    INDEX 01 01:38:18
  TRACK 62 AUDIO
    TITLE "0:"
    INDEX 01 01:40:15
  TRACK 63 AUDIO
    TITLE "13:cjc040_0075"
    INDEX 01 01:40:72
  TRACK 64 AUDIO
    TITLE "0:"
    INDEX 01 01:43:15
  TRACK 65 AUDIO
    TITLE "14:cjc040_0076"
    INDEX 01 01:43:70
  TRACK 66 AUDIO
    TITLE "0:"
    INDEX 01 01:47:11
  TRACK 67 AUDIO
    TITLE "12:cjc040_0077"
    INDEX 01 01:47:66
  TRACK 68 AUDIO
    TITLE "0:"
    INDEX 01 01:49:51
  TRACK 69 AUDIO
    TITLE "13:cjc040_0078"
    INDEX 01 01:50:31
  TRACK 70 AUDIO
    TITLE "0:"
    INDEX 01 01:52:34
  TRACK 71 AUDIO
    TITLE "14:cjc040_0079"
    INDEX 01 01:53:12
  TRACK 72 AUDIO
    TITLE "0:"
    INDEX 01 01:58:38
  TRACK 73 AUDIO
    TITLE "12:cjc040_0080"
    INDEX 01 01:59:16
  TRACK 74 AUDIO
    TITLE "0:"
    INDEX 01 02:00:61
  TRACK 75 AUDIO
    TITLE "13:cjc040_0081"
    INDEX 01 02:01:39
  TRACK 76 AUDIO
    TITLE "0:"
    INDEX 01 02:03:43
  TRACK 77 AUDIO
    TITLE "14:cjc040_0082"
    INDEX 01 02:04:19
  TRACK 78 AUDIO
    TITLE "0:"
    INDEX 01 02:07:67
  TRACK 79 AUDIO
    TITLE "12:cjc040_0083"
    INDEX 01 02:08:48
  TRACK 80 AUDIO
    TITLE "0:"
    INDEX 01 02:10:61
  TRACK 81 AUDIO
    TITLE "13:cjc040_0084"
    INDEX 01 02:11:43
  TRACK 82 AUDIO
    TITLE "0:"
    INDEX 01 02:13:67
  TRACK 83 AUDIO
    TITLE "14:cjc040_0085"
    INDEX 01 02:14:47
  TRACK 84 AUDIO
    TITLE "0:"
    INDEX 01 02:18:61
